<svg width="24" height="24" viewBox="0 0 24 24" fill="none" xmlns="http://www.w3.org/2000/svg">
<path d="M22 6V18C22 18.55 21.8043 19.021 21.413 19.413C21.0217 19.805 20.5507 20.0007 20 20H15.95C15.6667 20 15.4293 19.904 15.238 19.712C15.0467 19.52 14.9507 19.2827 14.95 19C14.9493 18.7173 15.0453 18.48 15.238 18.288C15.4307 18.096 15.668 18 15.95 18H20V6H4V6.15C4 6.43333 3.904 6.671 3.712 6.863C3.52 7.055 3.28267 7.15067 3 7.15C2.71734 7.14933 2.48 7.05333 2.288 6.862C2.096 6.67067 2 6.43333 2 6.15V6C2 5.45 2.196 4.97933 2.588 4.588C2.98 4.19667 3.45067 4.00067 4 4H20C20.55 4 21.021 4.196 21.413 4.588C21.805 4.98 22.0007 5.45067 22 6ZM8 20C7.73334 20 7.5 19.9207 7.3 19.762C7.1 19.6033 6.975 19.391 6.925 19.125C6.74167 18.075 6.271 17.1833 5.513 16.45C4.755 15.7167 3.85067 15.2583 2.8 15.075C2.55 15.0417 2.35434 14.921 2.213 14.713C2.07167 14.505 2.00067 14.2673 2 14C2 13.7167 2.09167 13.4793 2.275 13.288C2.45834 13.0967 2.675 13.0173 2.925 13.05C4.49167 13.25 5.82934 13.9083 6.938 15.025C8.04667 16.1417 8.709 17.4833 8.925 19.05C8.95834 19.3167 8.88334 19.5417 8.7 19.725C8.51667 19.9083 8.28334 20 8 20ZM12 20C11.7167 20 11.4793 19.9083 11.288 19.725C11.0967 19.5417 10.984 19.3083 10.95 19.025C10.7167 16.8917 9.846 15.0833 8.338 13.6C6.83 12.1167 5.009 11.2667 2.875 11.05C2.60834 11.0167 2.39567 10.9 2.237 10.7C2.07834 10.5 1.99934 10.2667 2 10C2 9.71667 2.08767 9.475 2.263 9.275C2.43834 9.075 2.65067 8.99167 2.9 9.025C5.58334 9.24167 7.86667 10.2833 9.75 12.15C11.6333 14.0167 12.7 16.2917 12.95 18.975C12.9833 19.2583 12.904 19.5 12.712 19.7C12.52 19.9 12.2827 20 12 20ZM3.25 20C2.9 20 2.604 19.879 2.362 19.637C2.12 19.395 1.99934 19.0993 2 18.75C2.00067 18.4007 2.12167 18.1047 2.363 17.862C2.60434 17.6193 2.9 17.4987 3.25 17.5C3.6 17.5013 3.896 17.6223 4.138 17.863C4.38 18.1037 4.50067 18.3993 4.5 18.75C4.49934 19.1007 4.37834 19.3967 4.137 19.638C3.89567 19.8793 3.6 20 3.25 20Z" fill="white"/>
</svg>
