<svg width="24" height="24" viewBox="0 0 24 24" fill="none" xmlns="http://www.w3.org/2000/svg">
<path fill-rule="evenodd" clip-rule="evenodd" d="M11.9998 7C8.05922 6.99441 4.2713 8.52343 1.4388 11.263L0.0498047 9.823C3.2553 6.72391 7.54116 4.99414 11.9998 5C16.4584 4.99414 20.7443 6.72391 23.9498 9.823L22.5608 11.263C19.7283 8.52343 15.9404 6.99441 11.9998 7Z"/>
<path fill-rule="evenodd" clip-rule="evenodd" d="M12 12.026C9.37073 12.0223 6.84261 13.039 4.94799 14.862L3.56299 13.418C5.8304 11.2382 8.85475 10.0227 12 10.027C15.1455 10.0232 18.1699 11.2395 20.437 13.42L19.052 14.863C17.1575 13.0396 14.6294 12.0225 12 12.026ZM12.02 17.022C10.6742 17.0198 9.38053 17.5425 8.41399 18.479L7.02399 17.04C8.36362 15.7434 10.1556 15.0195 12.02 15.022C13.937 15.022 15.68 15.774 16.969 16.995L15.593 18.447C14.6296 17.5301 13.3499 17.0198 12.02 17.022Z"/>
</svg>
