<svg width="24" height="24" viewBox="0 0 24 24" fill="none" xmlns="http://www.w3.org/2000/svg">
<g opacity="0.7">
<path d="M13.6341 16.8301L10.17 18.8301C8.97197 19.5218 7.70709 19.689 6.37534 19.3316C5.04359 18.9743 4.03176 18.1971 3.33984 17C2.64793 15.8029 2.48077 14.538 2.83834 13.2054C3.19591 11.8727 3.97312 10.8609 5.16997 10.1699L8.63407 8.16988L9.63407 9.90193L6.16997 11.9019C5.44828 12.3186 4.98068 12.9254 4.76717 13.7222C4.55365 14.519 4.65523 15.2783 5.0719 16C5.48856 16.7217 6.09532 17.1893 6.89217 17.4028C7.68902 17.6163 8.44828 17.5147 9.16997 17.0981L12.6341 15.0981L13.6341 16.8301ZM9.036 14.866L8.036 13.134L14.9642 9.13398L15.9642 10.866L9.036 14.866ZM15.3661 15.8301L14.3661 14.0981L17.8302 12.0981C18.5519 11.6814 19.0195 11.0747 19.233 10.2778C19.4465 9.48096 19.345 8.72169 18.9283 8C18.5116 7.27832 17.9049 6.81071 17.108 6.5972C16.3112 6.38368 15.5519 6.48526 14.8302 6.90193L11.3661 8.90193L10.3661 7.16988L13.8302 5.16988C15.0282 4.47821 16.2934 4.31087 17.6257 4.66787C18.9581 5.02487 19.9696 5.80225 20.6604 7C21.3511 8.19776 21.5184 9.46293 21.1624 10.7955C20.8063 12.1281 20.0289 13.1396 18.8302 13.8301L15.3661 15.8301Z"/>
</g>
</svg>
