<svg width="68" height="22" viewBox="0 0 68 22" fill="none" xmlns="http://www.w3.org/2000/svg">
<path d="M6.52 4.76C7.84 4.76 8.90667 5.18 9.72 6.02C10.5333 6.84667 10.94 8.00667 10.94 9.5V16H8.14V9.88C8.14 9 7.92 8.32667 7.48 7.86C7.04 7.38 6.44 7.14 5.68 7.14C4.90667 7.14 4.29333 7.38 3.84 7.86C3.4 8.32667 3.18 9 3.18 9.88V16H0.38V4.92H3.18V6.3C3.55333 5.82 4.02667 5.44667 4.6 5.18C5.18667 4.9 5.82667 4.76 6.52 4.76ZM23.9027 10.22C23.9027 10.62 23.876 10.98 23.8227 11.3H15.7227C15.7893 12.1 16.0693 12.7267 16.5627 13.18C17.056 13.6333 17.6627 13.86 18.3827 13.86C19.4227 13.86 20.1627 13.4133 20.6027 12.52H23.6227C23.3027 13.5867 22.6893 14.4667 21.7827 15.16C20.876 15.84 19.7627 16.18 18.4427 16.18C17.376 16.18 16.416 15.9467 15.5627 15.48C14.7227 15 14.0627 14.3267 13.5827 13.46C13.116 12.5933 12.8827 11.5933 12.8827 10.46C12.8827 9.31333 13.116 8.30667 13.5827 7.44C14.0493 6.57333 14.7027 5.90667 15.5427 5.44C16.3827 4.97333 17.3493 4.74 18.4427 4.74C19.496 4.74 20.436 4.96667 21.2627 5.42C22.1027 5.87333 22.7493 6.52 23.2027 7.36C23.6693 8.18667 23.9027 9.14 23.9027 10.22ZM21.0027 9.42C20.9893 8.7 20.7293 8.12667 20.2227 7.7C19.716 7.26 19.096 7.04 18.3627 7.04C17.6693 7.04 17.0827 7.25333 16.6027 7.68C16.136 8.09333 15.8493 8.67333 15.7427 9.42H21.0027ZM30.1864 16.18C29.2797 16.18 28.4664 16.02 27.7464 15.7C27.0264 15.3667 26.4531 14.92 26.0264 14.36C25.6131 13.8 25.3864 13.18 25.3464 12.5H28.1664C28.2197 12.9267 28.4264 13.28 28.7864 13.56C29.1597 13.84 29.6197 13.98 30.1664 13.98C30.6997 13.98 31.1131 13.8733 31.4064 13.66C31.7131 13.4467 31.8664 13.1733 31.8664 12.84C31.8664 12.48 31.6797 12.2133 31.3064 12.04C30.9464 11.8533 30.3664 11.6533 29.5664 11.44C28.7397 11.24 28.0597 11.0333 27.5264 10.82C27.0064 10.6067 26.5531 10.28 26.1664 9.84C25.7931 9.4 25.6064 8.80667 25.6064 8.06C25.6064 7.44667 25.7797 6.88667 26.1264 6.38C26.4864 5.87333 26.9931 5.47333 27.6464 5.18C28.3131 4.88667 29.0931 4.74 29.9864 4.74C31.3064 4.74 32.3597 5.07333 33.1464 5.74C33.9331 6.39333 34.3664 7.28 34.4464 8.4H31.7664C31.7264 7.96 31.5397 7.61333 31.2064 7.36C30.8864 7.09333 30.4531 6.96 29.9064 6.96C29.3997 6.96 29.0064 7.05333 28.7264 7.24C28.4597 7.42667 28.3264 7.68667 28.3264 8.02C28.3264 8.39333 28.5131 8.68 28.8864 8.88C29.2597 9.06667 29.8397 9.26 30.6264 9.46C31.4264 9.66 32.0864 9.86667 32.6064 10.08C33.1264 10.2933 33.5731 10.6267 33.9464 11.08C34.3331 11.52 34.5331 12.1067 34.5464 12.84C34.5464 13.48 34.3664 14.0533 34.0064 14.56C33.6597 15.0667 33.1531 15.4667 32.4864 15.76C31.8331 16.04 31.0664 16.18 30.1864 16.18ZM40.1048 7.22V12.58C40.1048 12.9533 40.1915 13.2267 40.3648 13.4C40.5515 13.56 40.8582 13.64 41.2848 13.64H42.5848V16H40.8248C38.4648 16 37.2848 14.8533 37.2848 12.56V7.22H35.9648V4.92H37.2848V2.18H40.1048V4.92H42.5848V7.22H40.1048ZM46.0188 3.6C45.5254 3.6 45.1121 3.44667 44.7788 3.14C44.4588 2.82 44.2988 2.42667 44.2988 1.96C44.2988 1.49333 44.4588 1.10667 44.7788 0.799999C45.1121 0.479999 45.5254 0.319999 46.0188 0.319999C46.5121 0.319999 46.9188 0.479999 47.2388 0.799999C47.5721 1.10667 47.7388 1.49333 47.7388 1.96C47.7388 2.42667 47.5721 2.82 47.2388 3.14C46.9188 3.44667 46.5121 3.6 46.0188 3.6ZM47.3988 4.92V16H44.5988V4.92H47.3988ZM55.2452 7.22H53.3052V16H50.4652V7.22H49.2052V4.92H50.4652V4.36C50.4652 3 50.8518 2 51.6252 1.36C52.3985 0.719999 53.5652 0.42 55.1252 0.46V2.82C54.4452 2.80667 53.9718 2.92 53.7052 3.16C53.4385 3.4 53.3052 3.83333 53.3052 4.46V4.92H55.2452V7.22ZM67.6597 4.92L60.7997 21.24H57.8197L60.2197 15.72L55.7797 4.92H58.9197L61.7797 12.66L64.6797 4.92H67.6597Z" fill="white"/>
</svg>
