<svg width="24" height="25" viewBox="0 0 24 25" fill="none" xmlns="http://www.w3.org/2000/svg">
<path d="M11.9996 13.5C11.4356 13.5 10.9612 13.3077 10.5766 12.923C10.1919 12.5383 9.99957 12.064 9.99957 11.5V5.5C9.99957 4.936 10.1919 4.46167 10.5766 4.077C10.9612 3.69233 11.4356 3.5 11.9996 3.5C12.5636 3.5 13.0379 3.69233 13.4226 4.077C13.8072 4.46167 13.9996 4.936 13.9996 5.5V11.5C13.9996 12.064 13.8072 12.5383 13.4226 12.923C13.0379 13.3077 12.5636 13.5 11.9996 13.5ZM11.4996 20.5V17.483C10.0562 17.3563 8.81757 16.783 7.78357 15.763C6.74957 14.7437 6.1669 13.4977 6.03557 12.025C6.01557 11.8823 6.05223 11.759 6.14557 11.655C6.2389 11.5517 6.3569 11.5 6.49957 11.5C6.64223 11.5 6.76123 11.551 6.85657 11.653C6.9519 11.755 7.01357 11.877 7.04157 12.019C7.1729 13.301 7.7139 14.3683 8.66457 15.221C9.61523 16.0737 10.7269 16.5 11.9996 16.5C13.2896 16.5 14.4056 16.0697 15.3476 15.209C16.2896 14.3477 16.8262 13.2843 16.9576 12.019C16.9856 11.877 17.0472 11.755 17.1426 11.653C17.2379 11.551 17.3569 11.5 17.4996 11.5C17.6422 11.5 17.7602 11.552 17.8536 11.656C17.9469 11.76 17.9836 11.883 17.9636 12.025C17.8322 13.465 17.2539 14.6997 16.2286 15.729C15.2032 16.7583 13.9602 17.343 12.4996 17.483V20.5C12.4996 20.6427 12.4519 20.7617 12.3566 20.857C12.2612 20.9523 12.1422 21 11.9996 21C11.8569 21 11.7379 20.9523 11.6426 20.857C11.5472 20.7617 11.4996 20.6427 11.4996 20.5Z" fill="#EEEEEE"/>
</svg>
