<svg width="48" height="48" viewBox="0 0 48 48" fill="none" xmlns="http://www.w3.org/2000/svg">
<rect width="48" height="48" rx="24" fill="white"/>
<path d="M19 34.125C20.5125 34.125 21.75 32.8875 21.75 31.375V17.625C21.75 16.1125 20.5125 14.875 19 14.875C17.4875 14.875 16.25 16.1125 16.25 17.625V31.375C16.25 32.8875 17.4875 34.125 19 34.125ZM27.25 17.625V31.375C27.25 32.8875 28.4875 34.125 30 34.125C31.5125 34.125 32.75 32.8875 32.75 31.375V17.625C32.75 16.1125 31.5125 14.875 30 14.875C28.4875 14.875 27.25 16.1125 27.25 17.625Z" fill="#1B1B1B"/>
</svg>
