<svg width="32" height="32" viewBox="0 0 32 32" fill="none" xmlns="http://www.w3.org/2000/svg">
<path d="M10.6663 16.8893L24.297 25.976C24.3974 26.0428 24.514 26.0811 24.6345 26.0869C24.7549 26.0926 24.8747 26.0656 24.981 26.0087C25.0873 25.9518 25.1762 25.8671 25.2382 25.7637C25.3002 25.6602 25.3329 25.5419 25.333 25.4213V6.57865C25.3329 6.45806 25.3002 6.33974 25.2382 6.2363C25.1762 6.13287 25.0873 6.04818 24.981 5.99126C24.8747 5.93434 24.7549 5.90732 24.6345 5.91309C24.514 5.91885 24.3974 5.95717 24.297 6.02398L10.6663 15.1106V6.66665C10.6663 6.31302 10.5259 5.97389 10.2758 5.72384C10.0258 5.47379 9.68663 5.33331 9.33301 5.33331C8.97939 5.33331 8.64025 5.47379 8.3902 5.72384C8.14015 5.97389 7.99967 6.31302 7.99967 6.66665V25.3333C7.99967 25.6869 8.14015 26.0261 8.3902 26.2761C8.64025 26.5262 8.97939 26.6666 9.33301 26.6666C9.68663 26.6666 10.0258 26.5262 10.2758 26.2761C10.5259 26.0261 10.6663 25.6869 10.6663 25.3333V16.8893Z" fill="#EEEEEE"/>
</svg>
