<svg width="32" height="32" viewBox="0 0 32 32" fill="none" xmlns="http://www.w3.org/2000/svg">
<g clip-path="url(#clip0_62_1208)">
<mask id="mask0_62_1208" style="mask-type:luminance" maskUnits="userSpaceOnUse" x="0" y="0" width="32" height="32">
<path d="M0 0H32V32H0V0Z" fill="white"/>
</mask>
<g mask="url(#mask0_62_1208)">
<path fill-rule="evenodd" clip-rule="evenodd" d="M3 22H9L14.172 27.172C14.5675 27.5676 15.0715 27.8371 15.6201 27.9462C16.1688 28.0554 16.7375 27.9994 17.2543 27.7853C17.7711 27.5712 18.2129 27.2086 18.5236 26.7435C18.8343 26.2783 19.0001 25.7314 19 25.172V6.828C19.0001 6.26858 18.8343 5.7217 18.5236 5.25653C18.2129 4.79135 17.7711 4.42879 17.2543 4.21469C16.7375 4.0006 16.1688 3.94459 15.6201 4.05376C15.0715 4.16293 14.5675 4.43237 14.172 4.828L9 10H3C2.20435 10 1.44129 10.3161 0.87868 10.8787C0.31607 11.4413 0 12.2043 0 13L0 19C0 19.7956 0.31607 20.5587 0.87868 21.1213C1.44129 21.6839 2.20435 22 3 22ZM28.324 26.206C27.794 26.844 26.838 26.84 26.252 26.254C25.668 25.668 25.676 24.722 26.19 24.074C28.0143 21.7787 29.0051 18.932 29 16C29.0046 13.0687 28.0139 10.2227 26.19 7.92799C25.676 7.27799 25.668 6.334 26.254 5.748C26.838 5.162 27.794 5.158 28.324 5.796C30.7044 8.66307 32.0051 12.2735 32 16C32 19.88 30.62 23.436 28.324 26.206ZM24.048 21.936C23.556 22.602 22.596 22.596 22.01 22.01C21.424 21.426 21.442 20.482 21.89 19.786C22.6153 18.6565 23.0007 17.3423 23 16C23 14.606 22.592 13.308 21.89 12.216C21.442 11.52 21.424 10.576 22.01 9.99C22.596 9.40399 23.556 9.398 24.05 10.066C25.276 11.726 26 13.778 26 16C26.0029 18.1368 25.3186 20.2179 24.048 21.936Z" fill="#EEEEEE"/>
</g>
</g>
<defs>
<clipPath id="clip0_62_1208">
<rect width="32" height="32" fill="white"/>
</clipPath>
</defs>
</svg>
