<svg width="32" height="32" viewBox="0 0 32 32" fill="none" xmlns="http://www.w3.org/2000/svg">
<path d="M21.3337 16.8893L7.70299 25.976C7.6026 26.0428 7.48597 26.0811 7.36551 26.0869C7.24506 26.0926 7.1253 26.0656 7.01899 26.0087C6.91268 25.9518 6.8238 25.8671 6.76181 25.7637C6.69982 25.6602 6.66705 25.5419 6.66699 25.4213V6.57865C6.66705 6.45806 6.69982 6.33974 6.76181 6.2363C6.8238 6.13287 6.91268 6.04818 7.01899 5.99126C7.1253 5.93434 7.24506 5.90732 7.36551 5.91309C7.48597 5.91885 7.6026 5.95717 7.70299 6.02398L21.3337 15.1106V6.66665C21.3337 6.31302 21.4741 5.97389 21.7242 5.72384C21.9742 5.47379 22.3134 5.33331 22.667 5.33331C23.0206 5.33331 23.3598 5.47379 23.6098 5.72384C23.8599 5.97389 24.0003 6.31302 24.0003 6.66665V25.3333C24.0003 25.6869 23.8599 26.0261 23.6098 26.2761C23.3598 26.5262 23.0206 26.6666 22.667 26.6666C22.3134 26.6666 21.9742 26.5262 21.7242 26.2761C21.4741 26.0261 21.3337 25.6869 21.3337 25.3333V16.8893Z" fill="#EEEEEE"/>
</svg>
