<svg width="26" height="24" viewBox="0 0 26 24" fill="none" xmlns="http://www.w3.org/2000/svg">
<path fill-rule="evenodd" clip-rule="evenodd" d="M3 18H9L14.172 23.172C14.5675 23.5676 15.0715 23.8371 15.6201 23.9462C16.1688 24.0554 16.7375 23.9994 17.2543 23.7853C17.7711 23.5712 18.2129 23.2086 18.5236 22.7435C18.8343 22.2783 19.0001 21.7314 19 21.172V2.828C19.0001 2.26858 18.8343 1.7217 18.5236 1.25653C18.2129 0.791353 17.7711 0.428788 17.2543 0.214693C16.7375 0.000598982 16.1688 -0.0554058 15.6201 0.0537632C15.0715 0.162932 14.5675 0.43237 14.172 0.827995L9 6H3C2.20435 6 1.44129 6.31607 0.87868 6.87868C0.31607 7.44128 0 8.20435 0 9L0 15C0 15.7956 0.31607 16.5587 0.87868 17.1213C1.44129 17.6839 2.20435 18 3 18ZM24.048 17.936C23.556 18.602 22.596 18.596 22.01 18.01C21.424 17.426 21.442 16.482 21.89 15.786C22.6153 14.6565 23.0007 13.3423 23 12C23 10.606 22.592 9.308 21.89 8.216C21.442 7.52 21.424 6.576 22.01 5.99C22.596 5.404 23.556 5.398 24.05 6.066C25.276 7.726 26 9.778 26 12C26.0029 14.1368 25.3186 16.218 24.048 17.936Z" fill="#EEEEEE"/>
</svg>
