<svg width="24" height="25" viewBox="0 0 24 25" fill="none" xmlns="http://www.w3.org/2000/svg">
<path d="M19.4846 20.654L13.2226 14.392C12.7226 14.818 12.1476 15.1477 11.4976 15.381C10.8476 15.6143 10.1943 15.731 9.53762 15.731C7.93628 15.731 6.58095 15.1767 5.47162 14.068C4.36228 12.9593 3.80762 11.6043 3.80762 10.003C3.80762 8.40168 4.36162 7.04601 5.46962 5.93601C6.57762 4.82601 7.93228 4.27035 9.53362 4.26901C11.135 4.26768 12.491 4.82235 13.6016 5.93301C14.7123 7.04368 15.2676 8.39935 15.2676 10C15.2676 10.6947 15.1446 11.367 14.8986 12.017C14.6526 12.667 14.3293 13.223 13.9286 13.685L20.1906 19.946L19.4846 20.654ZM9.53862 14.73C10.8653 14.73 11.9853 14.2733 12.8986 13.36C13.8119 12.4467 14.2686 11.3263 14.2686 9.99901C14.2686 8.67168 13.8119 7.55168 12.8986 6.63901C11.9853 5.72635 10.8653 5.26968 9.53862 5.26901C8.21195 5.26835 7.09162 5.72501 6.17762 6.63901C5.26362 7.55301 4.80695 8.67301 4.80762 9.99901C4.80828 11.325 5.26495 12.445 6.17762 13.359C7.09028 14.273 8.21028 14.7297 9.53762 14.729" fill="#7B7B7B"/>
</svg>
