<svg width="16" height="17" viewBox="0 0 16 17" fill="none" xmlns="http://www.w3.org/2000/svg">
<path d="M7.01856 16.5C6.79899 16.5 6.60868 16.4321 6.44762 16.2964C6.28594 16.1607 6.18559 15.9916 6.14658 15.7889L5.89839 13.9293C5.59704 13.8434 5.27115 13.7089 4.92072 13.5258C4.57093 13.3421 4.27303 13.1453 4.02704 12.9356L2.21987 13.668C2.02043 13.751 1.81785 13.7599 1.61213 13.6947C1.4064 13.6295 1.24786 13.5065 1.13651 13.3258L0.11826 11.6733C0.00690414 11.4926 -0.0258107 11.3036 0.0201158 11.1062C0.0660423 10.9089 0.175511 10.7471 0.348522 10.6209L1.92638 9.50978C1.89807 9.34859 1.87511 9.18297 1.85749 9.01289C1.83862 8.84222 1.82918 8.67659 1.82918 8.516C1.82918 8.36667 1.83862 8.20963 1.85749 8.04489C1.87511 7.88015 1.89807 7.69467 1.92638 7.48845L0.348522 6.37734C0.175511 6.25111 0.0691879 6.08667 0.0295527 5.884C-0.0100825 5.68134 0.0254635 5.48934 0.13619 5.308L1.13651 3.708C1.24786 3.53793 1.4064 3.41763 1.61213 3.34711C1.81785 3.2766 2.02043 3.28282 2.21987 3.36578L4.00911 4.08045C4.29096 3.85941 4.59609 3.66 4.9245 3.48223C5.25165 3.30445 5.5703 3.16697 5.88046 3.06978L6.14753 1.21023C6.1859 1.00756 6.28594 0.838374 6.44762 0.70267C6.60931 0.566967 6.79962 0.499411 7.01856 0.500004H8.98144C9.20101 0.500004 9.39132 0.567856 9.55238 0.703559C9.71407 0.839263 9.81441 1.00845 9.85342 1.21111L10.1016 3.08845C10.4634 3.20815 10.783 3.34534 11.0604 3.5C11.3378 3.65467 11.6238 3.84845 11.9182 4.08134L13.7981 3.36667C13.9981 3.28371 14.201 3.27748 14.4067 3.348C14.6125 3.41852 14.7707 3.53882 14.8814 3.70889L15.8817 5.32578C15.9931 5.50711 16.0258 5.69615 15.9799 5.89289C15.934 6.08963 15.8245 6.25171 15.6515 6.37911L14.0019 7.54C14.0535 7.72371 14.0824 7.8923 14.0887 8.04578C14.095 8.19926 14.0982 8.35037 14.0982 8.49911C14.0982 8.63719 14.0919 8.78267 14.0793 8.93556C14.0673 9.08904 14.0396 9.27452 13.9962 9.492L15.5911 10.6209C15.7641 10.7471 15.8767 10.9089 15.9289 11.1062C15.9811 11.3036 15.9516 11.4926 15.8402 11.6733L14.8342 13.308C14.7235 13.4893 14.5621 13.6123 14.3501 13.6769C14.1381 13.7421 13.9324 13.7332 13.7329 13.6502L11.9182 12.9178C11.6244 13.1507 11.3287 13.3501 11.0311 13.516C10.7336 13.6819 10.4237 13.8138 10.1016 13.9116L9.85247 15.788C9.8141 15.9907 9.71407 16.1599 9.55238 16.2956C9.39069 16.4313 9.20038 16.4994 8.98144 16.5H7.01856ZM7.97452 10.7222C8.63259 10.7222 9.19031 10.5068 9.64769 10.076C10.1051 9.64519 10.3338 9.11985 10.3338 8.5C10.3338 7.88015 10.1051 7.35482 9.64769 6.924C9.19031 6.49319 8.63259 6.27778 7.97452 6.27778C7.31268 6.27778 6.75401 6.49319 6.29852 6.924C5.84303 7.35482 5.61528 7.88015 5.61528 8.5C5.61528 9.11985 5.84303 9.64519 6.29852 10.076C6.75401 10.5068 7.31268 10.7222 7.97452 10.7222Z" fill="white"/>
</svg>
