<svg width="24" height="24" viewBox="0 0 24 24" fill="none" xmlns="http://www.w3.org/2000/svg">
<path d="M12.253 19.4L7.99 15.782C7.80936 15.6285 7.58006 15.5441 7.343 15.544H4.75C4.21957 15.544 3.71086 15.3333 3.33579 14.9582C2.96071 14.5831 2.75 14.0744 2.75 13.544V10.458C2.75 9.92757 2.96071 9.41886 3.33579 9.04378C3.71086 8.66871 4.21957 8.458 4.75 8.458H7.344C7.58106 8.45786 7.81036 8.37351 7.991 8.22L12.253 4.6C12.3985 4.47656 12.5762 4.39732 12.7653 4.37161C12.9543 4.3459 13.1467 4.37481 13.3199 4.45492C13.493 4.53503 13.6397 4.66299 13.7425 4.82372C13.8452 4.98444 13.8999 5.17122 13.9 5.362V18.64C13.8999 18.8308 13.8452 19.0176 13.7425 19.1783C13.6397 19.339 13.493 19.467 13.3199 19.5471C13.1467 19.6272 12.9543 19.6561 12.7653 19.6304C12.5762 19.6047 12.3985 19.5254 12.253 19.402V19.4Z" stroke="#1E1E1E" stroke-width="1.5" stroke-linejoin="round"/>
<path d="M16.6641 8.54199C17.1441 8.89199 17.5441 9.39599 17.8221 10.004C18.0991 10.611 18.2451 11.299 18.2451 12C18.2451 12.7 18.0991 13.39 17.8221 13.996C17.5441 14.603 17.1451 15.108 16.6641 15.458" stroke="#1E1E1E" stroke-width="1.5" stroke-linecap="round" stroke-linejoin="round"/>
</svg>
